<?xml version="1.0" encoding="UTF-8" standalone="no"?>
<!-- Created with Inkscape (http://www.inkscape.org/) -->

<svg
   xmlns:dc="http://purl.org/dc/elements/1.1/"
   xmlns:cc="http://creativecommons.org/ns#"
   xmlns:rdf="http://www.w3.org/1999/02/22-rdf-syntax-ns#"
   xmlns:svg="http://www.w3.org/2000/svg"
   xmlns="http://www.w3.org/2000/svg"
   xmlns:sodipodi="http://sodipodi.sourceforge.net/DTD/sodipodi-0.dtd"
   xmlns:inkscape="http://www.inkscape.org/namespaces/inkscape"
   width="100mm"
   height="100mm"
   viewBox="0 0 100 100"
   version="1.1"
   id="svg8"
   inkscape:version="0.92.2 (5c3e80d, 2017-08-06)"
   sodipodi:docname="default.svg">
  <defs
     id="defs2" />
  <sodipodi:namedview
     id="base"
     pagecolor="#ffffff"
     bordercolor="#666666"
     borderopacity="1.0"
     inkscape:pageopacity="0.0"
     inkscape:pageshadow="2"
     inkscape:zoom="2.8"
     inkscape:cx="238.32303"
     inkscape:cy="186.96145"
     inkscape:document-units="mm"
     inkscape:current-layer="layer2"
     showgrid="false"
     inkscape:window-width="2560"
     inkscape:window-height="1417"
     inkscape:window-x="-8"
     inkscape:window-y="-8"
     inkscape:window-maximized="1" />
  <metadata
     id="metadata5">
    <rdf:RDF>
      <cc:Work
         rdf:about="">
        <dc:format>image/svg+xml</dc:format>
        <dc:type
           rdf:resource="http://purl.org/dc/dcmitype/StillImage" />
        <dc:title></dc:title>
      </cc:Work>
    </rdf:RDF>
  </metadata>
  <g
     inkscape:groupmode="layer"
     id="layer2"
     inkscape:label="Layer 1">
    <path
       style="fill:#1180ff;fill-opacity:1;stroke:#000000;stroke-width:0.26458332px;stroke-linecap:butt;stroke-linejoin:miter;stroke-opacity:1"
       d="M 42.640233,0.70937123 42.506597,6.5893007 C 1.0482462,15.095126 -1.6808644,52.91672 7.3606566,70.733988 8.2698449,59.336662 10.752128,61.023162 18.185072,64.319517 10.876927,47.257948 18.835856,24.478477 42.506597,19.284603 v 6.280834 L 58.00823,14.340117 c 0.328188,-0.621582 0.532526,-1.258645 -0.133633,-2.004521 z"
       id="path829"
       inkscape:connector-curvature="0"
       sodipodi:nodetypes="ccccccccc" />
    <path
       style="fill:#1180ff;fill-opacity:1;stroke:#000000;stroke-width:0.26458332px;stroke-linecap:butt;stroke-linejoin:miter;stroke-opacity:1"
       d="M 98.452755,70.634186 93.357481,67.696567 C 105.77985,27.238827 73.902143,6.7027016 53.931444,6.0900248 c 9.564543,6.2645982 6.894066,7.6337462 0.436388,12.5746962 18.476177,1.771159 34.646573,19.681132 27.85009,42.942434 l -5.511149,-3.012656 2.414222,18.98631 c 0.387992,0.586119 0.848974,1.070992 1.822976,0.844232 z"
       id="path829-9"
       inkscape:connector-curvature="0"
       sodipodi:nodetypes="ccccccccc" />
    <path
       style="fill:#1180ff;fill-opacity:1;stroke:#000000;stroke-width:0.26458332px;stroke-linecap:butt;stroke-linejoin:miter;stroke-opacity:1"
       d="M 8.1497335,83.543061 13.335117,80.767603 C 41.130819,112.68223 75.404373,96.457417 86.471193,79.822224 76.10037,84.635916 76.347985,81.645142 75.56253,73.552081 64.301219,88.306365 40.552796,92.579691 24.388945,74.523917 l 5.46874,-3.088978 -17.397777,-7.976574 c -0.70262,0.01994 -1.357804,0.155349 -1.67962,1.102197 z"
       id="path829-6"
       inkscape:connector-curvature="0"
       sodipodi:nodetypes="ccccccccc" />
    <path
       style="fill:#9a5132;fill-opacity:1;stroke:none;stroke-width:0.26458332px;stroke-linecap:butt;stroke-linejoin:miter;stroke-opacity:1"
       d="m 41.463988,39.996279 c 0.836375,-0.674609 1.136076,-1.55047 3.874254,-1.511903 l -0.09449,-3.02381 6.709076,0.09449 0.0945,3.212798 c 1.843917,-0.119187 3.068638,0.277622 3.401785,1.41741 l 2.740327,-2.078868 4.346725,4.913691 -2.078868,1.984375 c 1.207816,1.537936 1.843076,2.952206 1.511906,4.157736 l 3.023809,-0.377976 0.09449,6.709077 -3.307291,0.188989 c 0.0984,1.291419 -0.07639,2.582838 -1.228423,3.874257 l 1.795388,1.889879 -4.630208,4.630208 -2.267858,-1.889879 c -1.30122,1.391523 -2.446715,1.69297 -3.496281,1.322917 l -0.283482,3.307291 -6.709077,-0.283482 0.09449,-2.929316 c -3.473678,-0.155711 -2.576137,-1.185666 -3.779761,-1.795388 l -2.456844,2.173364 -4.346729,-4.724702 2.173365,-2.078871 c -1.96277,-1.07757 -1.443443,-2.465402 -1.511906,-3.77976 l -3.401785,-0.47247 0.188989,-6.331103 3.118302,0.0945 c 0.281461,-1.608825 0.313293,-3.517204 1.795389,-3.685267 l -2.078871,-2.645834 4.441222,-4.346728 z"
       id="path852"
       inkscape:connector-curvature="0"
       sodipodi:nodetypes="ccccccccccccccccccccccccccccccccc" />
    <circle
       style="fill:#ffffff;fill-opacity:1;stroke:none;stroke-width:0.31086537;stroke-miterlimit:4;stroke-dasharray:none;stroke-opacity:1"
       id="path856"
       cx="48.551037"
       cy="52.091515"
       r="5.7641368" />
  </g>
</svg>
