<?xml version="1.0" encoding="UTF-8" standalone="no"?>
<svg
   width="512"
   height="325"
   viewBox="0 0 512 325"
   version="1.1"
   id="svg6"
   sodipodi:docname="Docs-To-Markdown.svg"
   xml:space="preserve"
   inkscape:version="1.2.2 (b0a8486541, 2022-12-01)"
   xmlns:inkscape="http://www.inkscape.org/namespaces/inkscape"
   xmlns:sodipodi="http://sodipodi.sourceforge.net/DTD/sodipodi-0.dtd"
   xmlns="http://www.w3.org/2000/svg"
   xmlns:svg="http://www.w3.org/2000/svg"><defs
     id="defs10" /><sodipodi:namedview
     id="namedview8"
     pagecolor="#ffffff"
     bordercolor="#000000"
     borderopacity="0.25"
     inkscape:showpageshadow="2"
     inkscape:pageopacity="0.0"
     inkscape:pagecheckerboard="0"
     inkscape:deskcolor="#d1d1d1"
     showgrid="false"
     inkscape:zoom="1.6310096"
     inkscape:cx="314.22255"
     inkscape:cy="179.94989"
     inkscape:window-width="2560"
     inkscape:window-height="1367"
     inkscape:window-x="0"
     inkscape:window-y="0"
     inkscape:window-maximized="1"
     inkscape:current-layer="svg6" /><path
     style="fill:#ffffff;fill-opacity:1;stroke-width:0.886511"
     d="M 54.53569,56.481354 132.47081,294.98461 212.0153,267.1452 192.70508,211.43458 207.25728,173.73504 196.59685,118.28345 153.14834,53.164916 110.59157,36.168703 79.705845,47.557546 Z"
     id="path346" /><path
     style="fill:#ffffff;fill-opacity:1;stroke:none;stroke-width:0.886511"
     d="m 333.9951,86.528638 -22.2784,85.276192 120.58319,26.58883 31.39103,-23.84991 -0.76857,-55.48558 z"
     id="path5997" /><path
     style="fill:#ffffff;fill-opacity:1;stroke:none"
     d="M -138.27278,-123.22005 -238.6803,-66.446837"
     id="path4211" /><path
     style="fill:#000000;stroke-width:0.886511"
     d="m 348.97636,296.5404 -87.0796,-28.3584 -84.90224,27.50423 c -46.69623,15.12732 -86.099007,27.7568 -87.561739,28.0655 -2.537117,0.53544 -2.568579,0.50696 -0.683707,-0.61857 3.553188,-2.12178 8.836753,-7.64589 10.337135,-10.80775 C 105.60747,298.58265 101.30212,282.1718 83.916797,254.50357 78.97451,246.63807 73.250671,236.86421 71.197164,232.78389 61.653307,213.8203 59.933569,199.06152 66.375618,191.40547 l 2.161581,-2.56894 -3.474697,-1.04107 C 57.880018,185.64352 52.277754,178.5995 48.671747,167.18656 45.400582,156.83338 43.932664,147.29392 42.482024,126.96171 40.107762,93.684176 35.590083,80.126631 22.527434,67.078087 17.187913,61.744331 14.613354,59.899398 9.8470461,57.991283 6.5577249,56.674459 3.0963514,55.597057 2.1551056,55.597057 c -2.95357509,0 -2.84698183,-1.589683 0.1704659,-2.542387 C 3.9146923,52.552935 36.377316,42.14853 74.464757,29.93377 112.55218,17.719005 144.11275,7.7251069 144.59936,7.7251069 c 0.48661,0 2.36932,4.2885291 4.1838,9.5300721 3.92987,11.352228 6.05543,13.867335 10.984,12.997004 1.785,-0.315213 7.57912,-1.95695 12.87581,-3.648304 5.2967,-1.691353 9.93496,-2.741397 10.30725,-2.33343 0.37227,0.407966 6.18963,17.784131 12.92744,38.6137 l 12.25059,37.871941 2.2643,-0.63271 c 4.372,-1.221632 16.43503,-0.496009 24.54776,1.47662 12.25358,2.97951 12.33744,3.15185 4.60219,9.4587 -8.85956,7.22351 -14.64023,11.32699 -19.20227,13.63093 -2.11263,1.06694 -3.66356,2.41356 -3.44645,2.99249 0.2171,0.57895 10.28189,31.57098 22.3662,68.87121 12.08432,37.30022 22.21215,68.09449 22.5063,68.43172 0.46486,0.53293 47.92839,-144.72078 47.49703,-145.35621 -0.0898,-0.13238 -8.6985,3.70442 -19.13029,8.52624 -10.43178,4.82184 -19.07,8.6834 -19.19603,8.58126 -0.12602,-0.10214 1.39027,-4.4971 3.36954,-9.76657 1.97927,-5.26945 3.27917,-9.8664 2.88866,-10.21543 -0.39051,-0.34902 -7.18904,-2.98236 -15.10784,-5.85184 -7.9188,-2.86947 -14.28254,-5.61614 -14.14167,-6.10373 0.56997,-1.97259 15.57661,-11.099744 21.26475,-12.933382 4.84284,-1.561139 7.19353,-1.832714 11.99822,-1.386158 l 5.97537,0.555358 3.56926,-10.825634 3.56925,-10.825643 7.76114,23.781624 c 4.26862,13.079885 7.91049,23.632235 8.09308,23.449675 0.18256,-0.18257 7.98607,-24.059271 17.34115,-53.059319 9.35507,-29.000051 17.99707,-54.8472401 19.20444,-57.4381848 2.51528,-5.3976059 4.84492,-6.71931476 10.38032,-5.88921527 2.00595,0.30081309 32.95779,10.21095307 68.78187,22.02252207 57.1378,18.838926 65.12319,21.68731 65.04105,23.200151 -0.0515,0.948518 -1.9931,7.70857 -4.31471,15.022339 -4.97929,15.686303 -5.44326,20.1893 -2.3228,22.543686 1.17366,0.885517 7.87758,3.500557 14.89761,5.811201 7.02003,2.310644 12.62966,4.335221 12.46582,4.499049 -0.16383,0.163837 -2.94024,-0.154741 -6.16981,-0.707945 -7.22901,-1.238306 -11.88589,-0.08626 -16.32374,4.038264 -4.96135,4.611052 -6.64048,10.965662 -7.53906,28.531522 -1.34477,26.28785 -3.597,38.46963 -8.9796,48.56858 -4.35932,8.17904 -12.03528,13.90529 -18.66752,13.92596 -1.34266,0.004 -1.22582,0.38062 0.75819,2.44286 4.17447,4.33909 5.9721,9.61656 5.95881,17.49391 -0.0213,12.62179 -4.47744,24.67451 -17.5408,47.44348 -13.19996,23.00704 -17.38533,34.44237 -17.38533,47.50036 0,8.35713 2.43079,14.22331 7.88213,19.02185 2.1948,1.93196 3.63518,3.46777 3.20086,3.41289 -0.43433,-0.0549 -39.9755,-12.86105 -87.86927,-28.45817 z M 153.81307,283.41658 c 4.3658,-1.21269 11.04961,-7.27021 12.34165,-11.18517 1.39766,-4.23503 0.39887,-11.35717 -2.22244,-15.84769 -5.50167,-9.42482 -19.64306,-10.55616 -29.02139,-2.32175 -4.28247,3.76011 -5.42312,6.92529 -4.98354,13.82882 0.4281,6.72335 3.56361,12.05633 8.69257,14.78463 3.43055,1.82485 10.11751,2.15106 15.19315,0.74116 z m -7.7099,-7.44399 c -1.95806,-0.85435 -3.26844,-2.45151 -4.65415,-5.67275 -2.44938,-5.69381 -2.4337,-8.35807 0.0659,-11.19856 5.89122,-6.6947 14.84894,-0.59095 14.84894,10.11799 0,3.42147 -2.26503,7.12062 -4.36001,7.12062 -0.4477,0 -1.34529,0.18492 -1.99464,0.41095 -0.64936,0.22599 -2.40706,-0.1242 -3.90602,-0.77825 z m 213.86298,1.41343 1.10354,-3.82972 -2.54702,0.55943 c -3.61044,0.793 -9.08604,-0.90411 -11.61815,-3.60092 -1.69776,-1.80818 -2.14509,-3.2111 -2.09561,-6.57223 0.15097,-10.25351 9.23417,-14.31314 18.02274,-8.05504 2.9085,2.07107 3.21375,1.87282 4.05973,-2.63676 0.56992,-3.03794 0.46269,-3.19187 -3.68717,-5.29259 -3.12669,-1.58278 -6.05911,-2.24196 -10.92292,-2.45539 -8.26616,-0.36274 -11.71896,1.27662 -15.51145,7.3647 -2.26766,3.6403 -2.65746,5.14336 -2.65951,10.25472 -0.002,6.61099 1.12339,8.85417 6.70376,13.35499 3.32246,2.67971 11.26016,5.21295 15.42275,4.92203 2.28164,-0.15945 2.7704,-0.68543 3.72931,-4.01322 z M 198.58762,266.67565 c 2.98862,-1.41389 5.70974,-3.0171 6.04694,-3.5627 0.7324,-1.18507 -1.09438,-7.16296 -2.18893,-7.16296 -0.42099,0 -1.01551,0.40463 -1.32115,0.89919 -0.30565,0.49456 -2.18992,1.73291 -4.18729,2.7519 -5.93777,3.02927 -11.43111,1.24521 -14.51223,-4.71312 -3.75392,-7.2594 1.49628,-14.89528 10.24153,-14.89528 3.87317,0 4.28232,-0.72329 2.72548,-4.81813 -0.694,-1.82542 -1.45899,-2.27401 -3.87781,-2.27401 -6.86713,0 -16.69972,5.84556 -19.748,11.74036 -1.86629,3.60905 -1.27699,10.56968 1.35517,16.00708 4.22325,8.72422 14.58321,11.17635 25.46629,6.02767 z m 120.71541,0.44003 c 5.24158,-2.72722 9.87376,-10.5498 9.90968,-16.7349 0.0565,-9.72947 -8.66004,-17.41897 -19.7929,-17.46078 -6.48852,-0.0244 -10.65978,1.88857 -13.91398,6.38096 -5.09485,7.03332 -5.17547,16.13589 -0.19535,22.05451 5.03284,5.98129 17.71553,9.0262 23.99255,5.76021 z m -14.62191,-7.98798 c -2.16404,-1.86305 -2.46998,-2.7258 -2.35381,-6.63773 0.30907,-10.40907 8.609,-15.9502 14.46927,-9.65984 2.37953,2.55417 2.34426,7.88463 -0.0854,12.9037 -2.80638,5.79732 -7.65086,7.16402 -12.03006,3.39387 z m -156.0766,-22.63049 c 22.6938,-9.14444 38.65789,-22.54598 45.91011,-38.54061 4.14397,-9.13949 5.5189,-15.88574 5.52563,-27.11228 0.008,-12.63663 -1.80119,-22.46541 -7.01519,-38.12024 C 178.76317,89.90333 158.95692,61.761566 136.4175,52.293042 130.11506,49.645472 119.41411,47.6184 111.73995,47.6184 c -7.946,0 -23.109875,2.584598 -33.388475,5.690879 -4.144408,1.252475 -9.829116,2.943406 -12.632686,3.757624 -2.80357,0.814218 -5.097399,1.837467 -5.097399,2.273885 0,0.700553 21.145741,62.142902 38.984781,113.276562 3.487129,9.99549 10.370049,29.94214 15.295399,44.32587 4.92534,14.38376 9.3146,26.62408 9.75393,27.20077 0.81842,1.07427 7.98372,-1.21357 23.94902,-7.64678 z M 136.28071,214.0765 c -0.8166,-1.30485 -1.73364,-3.91927 -27.84118,-79.37378 C 97.597131,103.3666 88.943546,77.510473 89.209347,77.244664 c 1.18147,-1.181483 10.620631,-3.129196 17.510263,-3.613133 22.12063,-1.553783 39.0203,10.973583 53.14416,39.394619 10.88303,21.89963 14.79686,36.36642 13.96324,51.61254 -0.87328,15.9714 -5.44256,27.03773 -15.21421,36.84726 -4.67151,4.6896 -8.01939,7.11471 -13.33026,9.65604 -3.90062,1.86649 -7.36367,3.54291 -7.69566,3.72537 -0.33199,0.18247 -0.91977,-0.17343 -1.30617,-0.79086 z m 235.50393,14.83465 c 8.02734,-1.68863 17.56483,-6.12365 24.3786,-11.33628 17.23807,-13.18736 29.20686,-38.18328 37.33345,-77.96811 3.28855,-16.09962 3.86737,-37.89147 1.31235,-49.409045 C 429.9807,68.432554 418.01865,54.743007 393.73471,43.191713 384.64475,38.867835 363.20766,31.077254 362.45922,31.825702 361.34213,32.94281 304.43929,219.09699 305.0375,219.67737 c 1.04643,1.01521 21.32013,6.75099 29.25268,8.27608 3.8004,0.73065 7.70766,1.49795 8.68281,1.70515 4.50795,0.9578 22.98386,0.47848 28.81165,-0.74745 z m -31.56906,-24.39901 c -5.62971,-1.0146 -9.44163,-2.42557 -8.9233,-3.30293 0.21658,-0.36661 9.87193,-31.38439 21.4563,-68.92839 11.58439,-37.544019 21.3631,-68.599573 21.73048,-69.012347 0.36738,-0.412775 4.1649,0.888248 8.43895,2.891161 20.74636,9.72222 29.59911,24.08083 29.63246,48.061996 0.0186,13.36213 -4.00921,35.00694 -9.02078,48.47655 -5.07998,13.65346 -17.33221,29.25508 -27.65004,35.20871 -10.50272,6.06033 -24.40297,8.63474 -35.66407,6.60525 z M 501.31864,85.818915 c -12.01607,-4.114256 -14.62518,-5.819623 -15.01859,-9.816492 -0.24729,-2.51232 7.56297,-28.938468 8.32698,-28.174457 0.8181,0.818106 17.84041,41.455768 17.36312,41.451265 -0.31974,-0.0027 -5.12193,-1.560164 -10.67151,-3.460316 z m -346.1359,-60.47274 c -1.65666,-2.549402 -6.10367,-15.9508073 -5.49496,-16.5595166 0.33144,-0.3314512 28.2553,11.6837856 29.55977,12.7191506 0.66642,0.528931 -14.14954,4.935209 -18.21252,5.416416 -4.04274,0.478809 -4.61758,0.324 -5.85229,-1.57605 z"
     id="path5105" /><path
     style="fill:#000000;fill-opacity:1;stroke:none;stroke-width:0.886511"
     d="M 359.25017,26.94529 282.27473,265.26805 414.83259,305.53877 453.63137,60.721148 Z"
     id="path5183"
     sodipodi:nodetypes="ccccc" /><path
     d="m 320.98987,154.77727 18.15946,-57.482938 16.90648,5.341098 10.23024,26.47452 23.58275,-15.79234 16.90649,5.3411 -18.15945,57.48294 -16.9065,-5.3411 10.41498,-32.96816 -23.58275,15.79234 -10.23023,-26.47451 -10.41497,32.96814 z m 105.66557,33.38183 -16.54705,-35.90777 16.90648,5.3411 9.34678,-29.5868 16.9065,5.34109 -9.34678,29.5868 16.90649,5.3411 z"
     id="path4-3"
     style="fill:#ffffff;fill-opacity:1;stroke-width:0.886511" /></svg>
